<svg xmlns="http://www.w3.org/2000/svg" viewBox="0 0 612.52 613.1"><g fill="#5baa00"><path d="M216,611.2a6.6,6.6,0,0,0,8.62-9.41c-19.86-30.91-38.67-82.94-8.7-149.95C265.92,340.11,297,334.75,297,334.75s15.51,15,59.36,75.07c42.21,57.79,65.31,130.48,28.07,191a6.6,6.6,0,0,0,8.6,9.35c46.1-23.59,97.81-70.89,103.64-165,2.16-28.76-1.07-69-17.2-119.85-20.74-64.41-46.24-94.46-61-107.37a6.61,6.61,0,0,0-10.92,5.42c4.3,69.49-21.84,87.13-36.72,47.38-5.95-15.87-9.41-43.33-9.41-76.76,0-55.67-16.15-113-51.76-159.53A180.72,180.72,0,0,0,277.15,1.39a6.6,6.6,0,0,0-10.61,5.7c2.73,37.74.25,145.89-94.63,275.09C85.89,402,119.22,494.08,131.05,519,153.67,566.77,185.21,594.81,216,611.2Z" transform="translate(0.88 0.88)"/><rect x="-118.51" y="298.23" width="847.94" height="16.63" transform="translate(-126.41 306.66) rotate(-45)"/><rect x="-119.41" y="297.05" width="849.58" height="16.66" transform="translate(306.26 738.13) rotate(-135)"/></g></svg>