<?xml version="1.0" standalone="no"?>
<!DOCTYPE svg PUBLIC "-//W3C//DTD SVG 20010904//EN"
 "http://www.w3.org/TR/2001/REC-SVG-20010904/DTD/svg10.dtd">
<svg version="1.0" xmlns="http://www.w3.org/2000/svg"
 width="200.000000pt" height="200.000000pt" viewBox="0 0 200.000000 200.000000"
 preserveAspectRatio="xMidYMid meet">
<metadata>
Created by potrace 1.11, written by Peter Selinger 2001-2013
</metadata>
<g transform="translate(0.000000,200.000000) scale(0.100000,-0.100000)"
fill="#000000" stroke="none">
<path d="M738 1460 l-147 -141 -3 63 -3 63 -93 3 -92 3 0 -156 0 -155 -137
-134 -138 -135 97 -97 97 -98 177 170 c97 93 227 217 288 275 l111 106 110
-102 109 -103 98 90 c54 50 98 94 98 98 0 12 -400 390 -413 390 -7 0 -78 -63
-159 -140z"/>
</g>
</svg>
