<svg xmlns="http://www.w3.org/2000/svg" xmlns:xlink="http://www.w3.org/1999/xlink" viewBox="0 0 564 72"><g fill-rule="evenodd"><path fill="rgb(32, 10, 3)" d="M550.363,62.000 L550.363,37.917 L525.650,62.070 L521.170,62.070 L521.170,12.995 C525.440,12.995 529.711,12.995 533.981,12.995 L533.981,37.007 L558.764,12.785 L563.314,12.785 L563.314,62.000 C559.044,62.000 554.704,62.000 550.363,62.000 ZM541.000,7.000 L554.000,7.000 L541.000,22.000 L541.000,7.000 ZM461.040,37.567 C461.040,3.684 511.305,3.684 511.305,37.567 C511.305,71.521 461.040,71.521 461.040,37.567 ZM473.921,37.567 C473.921,55.349 498.494,55.349 498.494,37.567 C498.494,19.926 473.921,19.926 473.921,37.567 ZM437.033,49.469 L428.003,49.469 L428.003,62.000 C423.802,62.000 419.602,62.000 415.471,62.000 C415.471,45.688 415.471,29.377 415.471,12.995 C422.542,12.995 429.823,12.995 437.033,12.995 C460.486,13.065 460.486,49.469 437.033,49.469 ZM436.963,24.196 C434.023,24.126 430.873,24.196 428.003,24.196 C428.003,28.186 428.003,34.207 428.003,38.198 L436.963,38.198 C443.824,38.198 444.244,24.266 436.963,24.196 ZM395.733,62.000 C391.603,62.000 387.473,62.000 383.342,62.000 L383.342,24.196 L371.301,24.196 C371.301,20.416 371.301,16.705 371.301,12.995 L407.705,12.995 C407.705,16.705 407.705,20.416 407.705,24.196 L395.733,24.196 L395.733,62.000 ZM343.304,51.079 C348.625,51.079 352.895,48.419 354.225,43.168 C358.426,43.168 362.276,43.168 366.547,43.168 C364.726,57.029 353.735,62.490 343.304,62.490 C330.843,62.560 318.241,54.159 318.171,37.497 C318.241,20.836 330.843,12.435 343.304,12.435 C353.455,12.435 364.446,17.965 366.336,31.057 C362.066,31.057 358.286,31.057 354.015,31.057 C352.265,26.086 348.555,23.846 343.304,23.846 C335.953,23.846 331.123,29.377 331.123,37.497 C331.123,44.708 335.883,51.009 343.304,51.079 Z"/><path fill="rgb(91, 170, 0)" d="M177.358,62.000 L177.358,47.578 L170.847,47.578 L162.446,62.000 L148.445,62.000 L148.445,60.180 L158.036,44.638 C145.644,36.237 149.145,13.065 168.397,12.995 C175.538,12.995 182.818,12.995 189.889,12.995 C189.889,29.377 189.889,45.688 189.889,62.000 C185.829,62.000 181.558,62.000 177.358,62.000 ZM177.358,24.196 C174.417,24.196 171.337,24.126 168.397,24.196 C161.256,24.266 161.606,36.307 168.397,36.307 L177.358,36.307 C177.358,32.387 177.358,28.186 177.358,24.196 ZM126.259,62.000 C119.048,62.000 111.767,62.000 104.696,62.000 C104.696,45.618 104.696,29.307 104.696,12.995 C108.827,12.995 113.027,12.995 117.228,12.995 L117.228,27.626 L126.259,27.626 C149.711,27.626 149.711,61.930 126.259,62.000 ZM126.189,38.898 L117.228,38.898 C117.228,42.888 117.228,46.808 117.228,50.799 C120.098,50.799 123.248,50.869 126.189,50.799 C133.469,50.729 133.049,38.898 126.189,38.898 ZM73.409,33.297 L60.948,62.000 L48.696,62.000 L48.696,60.180 L70.749,12.365 L76.139,12.365 L98.262,60.180 L98.262,62.000 L86.010,62.000 L73.409,33.297 ZM29.380,37.917 L4.668,62.070 L0.187,62.070 L0.187,12.995 C4.458,12.995 8.728,12.995 12.998,12.995 L12.998,37.007 L37.781,12.785 L42.332,12.785 L42.332,62.000 C38.061,62.000 33.721,62.000 29.380,62.000 L29.380,37.917 Z"/><path fill="rgb(32, 10, 3)" d="M273.024,24.295 L261.316,36.003 L248.590,23.277 L215.069,56.798 L203.379,45.108 L219.437,29.049 L219.437,9.906 L230.500,9.906 L230.500,17.987 L248.189,0.298 L248.427,0.535 L248.845,0.117 L273.024,24.295 Z"/><path fill="rgb(91, 170, 0)" d="M306.152,26.960 L261.758,71.702 L261.523,71.465 L261.108,71.883 L237.154,47.741 L248.754,36.051 L261.361,48.758 L294.571,15.288 L306.152,26.960 Z"/></g></svg>